<?xml version="1.0" encoding="utf-8"?>
<!-- Generator: Adobe Illustrator 17.0.0, SVG Export Plug-In . SVG Version: 6.00 Build 0)  -->
<!DOCTYPE svg PUBLIC "-//W3C//DTD SVG 1.1//EN" "http://www.w3.org/Graphics/SVG/1.1/DTD/svg11.dtd">
<svg version="1.1" id="Layer_1" xmlns="http://www.w3.org/2000/svg" xmlns:xlink="http://www.w3.org/1999/xlink" x="0px" y="0px"
	 width="48px" height="48px" viewBox="0 0 48 48" enable-background="new 0 0 48 48" xml:space="preserve">
<path d="M38.219,46.75H9.781c-4.712,0-8.531-3.819-8.531-8.531v-5.688h5.688v5.688c0,1.573,1.274,2.844,2.844,2.844h28.438
	c1.573,0,2.844-1.271,2.844-2.844V9.781c0-1.57-1.271-2.844-2.844-2.844H9.781c-1.57,0-2.844,1.274-2.844,2.844v5.688H1.25V9.781
	c0-4.712,3.819-8.531,8.531-8.531h28.438c4.712,0,8.531,3.819,8.531,8.531v28.438C46.75,42.931,42.931,46.75,38.219,46.75z
	 M13.851,15.228c1.122-0.462,2.412-0.207,3.27,0.651l6,6C23.706,22.464,24,23.232,24,24s-0.294,1.536-0.879,2.121l-6,6
	c-0.858,0.855-2.148,1.113-3.27,0.651C12.732,32.31,12,31.212,12,30v-2.997H3c-1.656,0-3-1.341-3-3c0-1.656,1.344-3,3-3h9V18
	C12,16.788,12.732,15.69,13.851,15.228z"/>
</svg>
