<?xml version="1.0" encoding="utf-8"?>
<!-- Generator: Adobe Illustrator 17.0.0, SVG Export Plug-In . SVG Version: 6.00 Build 0)  -->
<!DOCTYPE svg PUBLIC "-//W3C//DTD SVG 1.1//EN" "http://www.w3.org/Graphics/SVG/1.1/DTD/svg11.dtd">
<svg version="1.1" id="Layer_1" xmlns="http://www.w3.org/2000/svg" xmlns:xlink="http://www.w3.org/1999/xlink" x="0px" y="0px"
	 width="48px" height="48px" viewBox="0 0 48 48" enable-background="new 0 0 48 48" xml:space="preserve">
<path d="M38.219,1.25c4.712,0,8.531,3.819,8.531,8.531v28.438c0,4.712-3.819,8.531-8.531,8.531H9.781
	c-4.712,0-8.531-3.819-8.531-8.531v-5.002l2.5,2.5c0.913,0.913,2.005,1.564,3.188,1.982v0.52c0,1.573,1.274,2.844,2.844,2.844H38.22
	c1.573,0,2.844-1.271,2.844-2.844V9.781c0-1.57-1.271-2.844-2.844-2.844H9.781c-1.57,0-2.844,1.274-2.844,2.844v0.518
	c-1.18,0.418-2.272,1.066-3.188,1.979l-2.5,2.5V9.781c0-4.712,3.819-8.531,8.531-8.531H38.219z M10.149,15.225
	C11.268,15.687,12,16.785,12,17.997V21h9c1.659,0,3,1.344,3,3c0,1.659-1.341,3-3,3h-9v2.997c0,1.212-0.732,2.31-1.851,2.772
	c-1.122,0.462-2.412,0.204-3.27-0.651l-6-6C0.294,25.533,0,24.765,0,23.997s0.294-1.536,0.879-2.121l6-6
	C7.737,15.018,9.027,14.763,10.149,15.225z"/>
</svg>
