<?xml version="1.0" encoding="utf-8"?>
<!-- Generator: Adobe Illustrator 17.0.0, SVG Export Plug-In . SVG Version: 6.00 Build 0)  -->
<!DOCTYPE svg PUBLIC "-//W3C//DTD SVG 1.1//EN" "http://www.w3.org/Graphics/SVG/1.1/DTD/svg11.dtd">
<svg version="1.1" id="Layer_1" xmlns="http://www.w3.org/2000/svg" xmlns:xlink="http://www.w3.org/1999/xlink" x="0px" y="0px"
	 width="26px" height="26px" viewBox="11.998 11.999 26 26" enable-background="new 11.998 11.999 26 26" xml:space="preserve">
<path fill="#C2C0B4" d="M13.198,36.502c0.745-0.41,1.484-0.834,2.247-1.205c0.74-0.363,1.505-0.674,2.262-1.003
	c0.712-0.307,1.432-0.597,2.139-0.914c0.121-0.054,0.244-0.188,0.294-0.313c0.158-0.406,0.292-0.826,0.417-1.245
	c0.095-0.317,0.156-0.631,0.554-0.715c0.1-0.022,0.223-0.198,0.238-0.318c0.081-0.61,0.142-1.223,0.183-1.838
	c0.01-0.13-0.056-0.299-0.143-0.398c-0.524-0.602-0.812-1.295-0.933-2.094c-0.061-0.399-0.278-0.77-0.391-1.163
	c-0.149-0.529-0.273-1.062-0.391-1.6c-0.043-0.193-0.018-0.402-0.049-0.599c-0.046-0.288-0.037-0.511,0.301-0.622
	c0.093-0.031,0.171-0.26,0.174-0.4c0.017-0.856,0.006-1.713,0.011-2.569c0.004-0.526-0.001-1.053,0.036-1.578
	c0.072-1.005,0.646-1.713,1.366-2.322c1.051-0.89,2.31-1.305,3.604-1.62c0.679-0.163,1.372-0.264,2.062-0.377
	c0.185-0.031,0.376-0.005,0.564-0.005c0.03,0.049,0.062,0.098,0.094,0.147c-0.146,0.107-0.306,0.197-0.431,0.324
	c-0.281,0.288-0.254,0.492,0.048,0.751c0.623,0.543,1.248,1.085,1.854,1.647c0.534,0.492,0.742,1.137,0.743,1.862
	c0.001,1.247,0.002,2.494,0.001,3.743c-0.001,0.256-0.019,0.507,0.29,0.62c0.065,0.024,0.134,0.164,0.128,0.244
	c-0.052,0.638-0.119,1.276-0.185,1.913c-0.002,0.024-0.007,0.053-0.021,0.071c-0.559,0.837-0.631,1.864-1.029,2.763
	c-0.017,0.034-0.024,0.074-0.049,0.102c-0.74,0.896-0.51,1.974-0.524,3.002c-0.002,0.105,0.071,0.269,0.153,0.304
	c0.303,0.137,0.377,0.403,0.461,0.685c0.131,0.444,0.262,0.891,0.447,1.312c0.067,0.156,0.271,0.287,0.44,0.353
	c2.278,0.898,4.534,1.849,6.709,2.993c0.435,0.23,0.81,0.511,1.126,0.846V11.999c-8.67,0-17.336,0-26,0v25.346
	C12.348,37.011,12.759,36.743,13.198,36.502z"/>
</svg>
