<?xml version="1.0" encoding="utf-8"?>
<!-- Generator: Adobe Illustrator 17.0.0, SVG Export Plug-In . SVG Version: 6.00 Build 0)  -->
<!DOCTYPE svg PUBLIC "-//W3C//DTD SVG 1.1//EN" "http://www.w3.org/Graphics/SVG/1.1/DTD/svg11.dtd">
<svg version="1.1" id="Capa_1" xmlns="http://www.w3.org/2000/svg" xmlns:xlink="http://www.w3.org/1999/xlink" x="0px" y="0px"
	 width="45.917px" height="45.917px" viewBox="0 0 45.917 45.917" enable-background="new 0 0 45.917 45.917" xml:space="preserve">
<g>
	<g>
		<g>
			<circle fill="none" cx="22.959" cy="15.9" r="7.203"/>
			<path d="M22.958,0.011c-9.568,0-17.32,7.754-17.32,17.32c0,6.86,8.908,19.991,13.947,26.866c0.791,1.076,2.043,1.709,3.375,1.709
				c1.331,0,2.584-0.633,3.371-1.709c5.037-6.875,13.948-20.005,13.948-26.866C40.279,7.765,32.524,0.011,22.958,0.011z
				 M22.959,24.071c-4.514,0.002-8.172-3.657-8.172-8.171c0-4.513,3.658-8.171,8.172-8.171c4.513,0,8.171,3.658,8.171,8.171
				S27.472,24.071,22.959,24.071z"/>
		</g>
	</g>
</g>
</svg>
