<?xml version="1.0" encoding="utf-8"?>
<!-- Generator: Adobe Illustrator 17.0.0, SVG Export Plug-In . SVG Version: 6.00 Build 0)  -->
<!DOCTYPE svg PUBLIC "-//W3C//DTD SVG 1.1//EN" "http://www.w3.org/Graphics/SVG/1.1/DTD/svg11.dtd">
<svg version="1.1" id="Capa_1" xmlns="http://www.w3.org/2000/svg" xmlns:xlink="http://www.w3.org/1999/xlink" x="0px" y="0px"
	 width="45.917px" height="45.917px" viewBox="0 0 45.917 45.917" enable-background="new 0 0 45.917 45.917" xml:space="preserve">
<g>
	<g>
		<path d="M33.523,28.803c-0.717,1.155-1.498,2.358-2.344,3.608c7.121,1.065,10.766,3.347,10.766,4.481
			c0,1.511-6.459,5.054-18.986,5.054c-12.528,0-18.988-3.543-18.988-5.054c0-1.135,3.645-3.416,10.768-4.481
			c-0.847-1.25-1.628-2.453-2.345-3.608C5.365,30.13,0,32.854,0,36.893c0,5.925,11.551,9.024,22.959,9.024s22.958-3.1,22.958-9.024
			C45.917,32.854,40.553,30.13,33.523,28.803z"/>
		<g>
			<circle fill="none" cx="22.959" cy="13.63" r="5.584"/>
			<path d="M22.958,1.312c-7.417,0-13.427,6.011-13.427,13.427c0,5.318,6.906,15.497,10.812,20.827
				c0.613,0.834,1.584,1.325,2.616,1.325c1.032,0,2.003-0.491,2.613-1.325c3.905-5.33,10.813-15.508,10.813-20.827
				C36.386,7.323,30.374,1.312,22.958,1.312z M22.959,19.964c-3.499,0.001-6.335-2.835-6.335-6.334c0-3.498,2.836-6.334,6.335-6.334
				c3.498,0,6.334,2.836,6.334,6.334S26.457,19.964,22.959,19.964z"/>
		</g>
	</g>
</g>
</svg>
