<?xml version="1.0" encoding="utf-8"?>
<!-- Generator: Adobe Illustrator 17.0.0, SVG Export Plug-In . SVG Version: 6.00 Build 0)  -->
<!DOCTYPE svg PUBLIC "-//W3C//DTD SVG 1.1//EN" "http://www.w3.org/Graphics/SVG/1.1/DTD/svg11.dtd">
<svg version="1.1" id="Layer_1" xmlns="http://www.w3.org/2000/svg" xmlns:xlink="http://www.w3.org/1999/xlink" x="0px" y="0px"
	 width="48px" height="48px" viewBox="0 0 48 48" enable-background="new 0 0 48 48" xml:space="preserve">
<path d="M39,39l-6,9l-6-9H9c-4.971,0-9-4.032-9-9V9c0-4.971,4.029-9,9-9h30c4.968,0,9,4.029,9,9v21C48,34.968,43.968,39,39,39z
	 M42,9c0-1.656-1.341-3-3-3H9C7.344,6,6,7.344,6,9v21c0,1.659,1.344,3,3,3h19.998L33,39l4.002-6H39c1.659,0,3-1.341,3-3V9z"/>
<g>
	<path d="M35.916,14.472H21.952c-3.409,0-6.269,2.368-7.039,5.543c-0.443-0.451-1.058-0.733-1.739-0.733
		c-1.346,0-2.44,1.093-2.44,2.44c0,1.346,1.095,2.438,2.44,2.438c0.681,0,1.297-0.28,1.739-0.733
		c0.77,3.175,3.629,5.544,7.039,5.544c3.585,0,6.57-2.616,7.148-6.039h6.816c0.746,0,1.351-0.605,1.351-1.352v-5.757
		C37.267,15.078,36.662,14.472,35.916,14.472z M13.174,22.675c-0.526,0-0.953-0.428-0.953-0.953c0-0.526,0.428-0.953,0.953-0.953
		c0.525,0,0.952,0.426,0.952,0.953C14.126,22.247,13.699,22.675,13.174,22.675z"/>
	<path d="M16.707,13.798c0.194,0.362,0.645,0.498,1.007,0.304c0.362-0.194,0.498-0.645,0.304-1.008L16.09,9.502
		c-0.194-0.361-0.645-0.498-1.007-0.304c-0.362,0.194-0.499,0.646-0.304,1.009L16.707,13.798z"/>
	<path d="M11.921,14.648l3.903,1.177c0.197,0.06,0.399,0.034,0.566-0.057c0.167-0.089,0.301-0.244,0.36-0.441
		c0.118-0.394-0.104-0.808-0.497-0.927l-3.903-1.176c-0.394-0.119-0.808,0.104-0.927,0.497
		C11.305,14.116,11.529,14.531,11.921,14.648z"/>
	<path d="M19.267,13.979c0.197,0.06,0.399,0.033,0.566-0.057c0.167-0.09,0.301-0.244,0.36-0.442l1.177-3.903
		c0.118-0.394-0.104-0.808-0.497-0.927c-0.393-0.118-0.808,0.105-0.927,0.498l-1.177,3.903
		C18.651,13.447,18.873,13.861,19.267,13.979z"/>
</g>
</svg>
