<?xml version="1.0" encoding="utf-8"?>
<!-- Generator: Adobe Illustrator 17.0.0, SVG Export Plug-In . SVG Version: 6.00 Build 0)  -->
<!DOCTYPE svg PUBLIC "-//W3C//DTD SVG 1.1//EN" "http://www.w3.org/Graphics/SVG/1.1/DTD/svg11.dtd">
<svg version="1.1" id="Layer_1" xmlns="http://www.w3.org/2000/svg" xmlns:xlink="http://www.w3.org/1999/xlink" x="0px" y="0px"
	 width="48px" height="48px" viewBox="0 0 48 48" enable-background="new 0 0 48 48" xml:space="preserve">
<path d="M15.419,46.72c-0.82,0.852-1.895,1.28-2.972,1.28c-1.076-0.001-2.152-0.428-2.972-1.28l-8.405-8.74
	c-1.202-1.25-1.559-3.133-0.912-4.767c0.647-1.63,2.186-2.696,3.883-2.695h4.203l0.001-13.109c0-2.416,1.879-4.369,4.203-4.369
	s4.202,1.954,4.202,4.37l-0.001,13.109h4.203c1.698,0,3.236,1.066,3.883,2.696c0.647,1.639,0.285,3.518-0.912,4.767L15.419,46.72z"
	/>
<path d="M32.422,1.28c0.82-0.852,1.895-1.28,2.972-1.28c1.076,0.001,2.152,0.428,2.972,1.28l8.405,8.74
	c1.202,1.25,1.559,3.133,0.912,4.767c-0.647,1.63-2.186,2.696-3.883,2.695h-4.203l-0.001,13.109c0,2.416-1.879,4.369-4.203,4.369
	s-4.202-1.954-4.202-4.37l0.001-13.109h-4.203c-1.698,0-3.236-1.066-3.883-2.696c-0.647-1.639-0.285-3.518,0.912-4.767L32.422,1.28z
	"/>
</svg>
