<?xml version="1.0" encoding="utf-8"?>
<!-- Generator: Adobe Illustrator 17.0.0, SVG Export Plug-In . SVG Version: 6.00 Build 0)  -->
<!DOCTYPE svg PUBLIC "-//W3C//DTD SVG 1.1//EN" "http://www.w3.org/Graphics/SVG/1.1/DTD/svg11.dtd">
<svg version="1.1" id="Layer_1" xmlns="http://www.w3.org/2000/svg" xmlns:xlink="http://www.w3.org/1999/xlink" x="0px" y="0px"
	 width="46.15px" height="46.15px" viewBox="1.088 1.01 46.15 46.15" enable-background="new 1.088 1.01 46.15 46.15"
	 xml:space="preserve">
<g>
	<path d="M24.163,36.085"/>
	<path d="M24.163,12.085"/>
	<g>
		<path d="M44.654,14.252c0-1.1-0.78-2.45-1.732-3l-17.029-9.83c-0.953-0.55-2.512-0.55-3.464,0L5.402,11.255
			c-0.953,0.55-1.732,1.9-1.732,3l0.002,19.662c0,1.1,0.78,2.45,1.732,3l17.029,9.83c0.953,0.55,2.512,0.55,3.464,0l17.027-9.833
			c0.953-0.55,1.732-1.9,1.732-3L44.654,14.252z M25.896,40.158c-0.953,0.55-2.511,0.55-3.464,0L11.11,33.623
			c-0.953-0.55-1.732-1.9-1.732-3L9.376,17.55c0-1.1,0.779-2.45,1.732-3l11.321-6.538c0.953-0.55,2.511-0.55,3.464,0l11.322,6.536
			c0.953,0.55,1.732,1.9,1.732,3l0.001,13.073c0,1.1-0.779,2.45-1.732,3L25.896,40.158z"/>
	</g>
</g>
<g>
	<g>
		<polygon points="23.546,21.613 24.445,22.746 26.883,21.281 25.791,20.242 		"/>
		<path d="M34.256,26.837V26.83l-0.004,0.002c-0.338-0.383-5.64-6.387-8.106-8.36c-2.363-1.818-6.679-1.703-10.704,1.558
			l-0.556,0.444c-0.032,0.024-0.065,0.042-0.095,0.068c-2.329,1.836-2.528,5.467-0.445,8.106c2.082,2.641,5.659,3.292,7.987,1.456
			c0.476-0.375,0.956-1.211,1.252-1.712l4.811,5.705l5.776-3.815l0.083-3.425l0.009-0.009C34.263,26.845,34.258,26.84,34.256,26.837
			z M33.03,29.806l-2.809,1.716v-0.803l2.809-1.716V29.806z M29.122,29.74l-6.297-7.677c-0.017-0.022-0.03-0.045-0.048-0.067
			c-0.043-0.055-0.09-0.103-0.135-0.155l-0.144-0.176l-0.003,0.005c-1.251-1.398-2.942-2.146-4.576-2.164
			c2.961-1.574,5.895-1.766,7.675-0.342c2.22,1.776,7.008,7.143,7.87,8.115L29.122,29.74z"/>
	</g>
</g>
<path d="M28.965,17.195c-0.218,0.262-0.183,0.65,0.079,0.868c0.261,0.218,0.65,0.183,0.869-0.079l2.165-2.595
	c0.217-0.261,0.183-0.651-0.079-0.868c-0.262-0.218-0.651-0.183-0.87,0.079L28.965,17.195z"/>
<path d="M26.829,13.779l0.304,3.366c0.015,0.17,0.097,0.317,0.219,0.418c0.121,0.101,0.281,0.156,0.45,0.141
	c0.339-0.031,0.589-0.33,0.559-0.67l-0.305-3.365c-0.03-0.34-0.33-0.589-0.669-0.559C27.047,13.14,26.798,13.44,26.829,13.779z"/>
<path d="M29.62,19.22c0.015,0.17,0.098,0.317,0.219,0.418c0.121,0.101,0.281,0.156,0.451,0.14l3.366-0.305
	c0.339-0.031,0.589-0.33,0.559-0.67c-0.031-0.339-0.331-0.589-0.67-0.558l-3.366,0.305C29.838,18.581,29.589,18.88,29.62,19.22z"/>
</svg>
